<svg xmlns="http://www.w3.org/2000/svg" xmlns:xlink="http://www.w3.org/1999/xlink" width="200" zoomAndPan="magnify" viewBox="0 0 150 74.999997" height="100" preserveAspectRatio="xMidYMid meet" version="1.2"><defs><clipPath id="69b5eb932b"><path d="M 3 11 L 147 11 L 147 62 L 3 62 Z M 3 11 "/></clipPath><clipPath id="3768da15df"><path d="M 75.761719 -42.542969 L 161.453125 38.210938 L 84.296875 120.085938 L -1.394531 39.328125 Z M 75.761719 -42.542969 "/></clipPath><clipPath id="dcd3ba34a9"><path d="M 75.761719 -42.542969 L 161.453125 38.210938 L 84.296875 120.085938 L -1.394531 39.328125 Z M 75.761719 -42.542969 "/></clipPath></defs><g id="be33053871"><g clip-rule="nonzero" clip-path="url(#69b5eb932b)"><g clip-rule="nonzero" clip-path="url(#3768da15df)"><g clip-rule="nonzero" clip-path="url(#dcd3ba34a9)"><path style=" stroke:none;fill-rule:nonzero;fill:#ff5757;fill-opacity:1;" d="M 145.691406 46.496094 C 144.300781 37.757812 141.253906 29.539062 137.800781 21.453125 C 136.789062 19.082031 135.773438 16.695312 134.527344 14.441406 C 132.679688 11.109375 131.472656 10.8125 127.183594 12.285156 C 126.625 15.253906 126.546875 18.289062 127.539062 21.308594 C 129.042969 25.886719 130.554688 30.457031 132.035156 35.039062 C 132.332031 35.953125 132.988281 36.902344 131.902344 38.0625 C 131.042969 37.253906 130.1875 36.460938 129.347656 35.652344 C 125.964844 32.386719 122.09375 29.800781 117.816406 27.9375 C 107.75 23.546875 97.203125 21.1875 86.191406 21.574219 C 80.1875 21.78125 74.199219 22.492188 67.714844 23.015625 C 66.859375 22.445312 66 21.882812 65.144531 21.300781 C 58.164062 16.578125 50.441406 14.84375 42.085938 15.46875 C 37.421875 15.820312 32.894531 16.808594 28.425781 18.097656 C 18.417969 20.988281 10.535156 26.714844 5.160156 35.742188 C 4.089844 37.546875 3.109375 39.414062 3.253906 41.527344 C 3.332031 42.636719 3.832031 43.890625 4.550781 44.734375 C 5.4375 45.785156 6.761719 46.398438 8.277344 45.472656 C 8.632812 44.238281 8.667969 42.714844 9.417969 41.738281 C 13.082031 36.941406 16.980469 32.265625 22.523438 29.535156 C 29.070312 26.316406 36.019531 24.402344 43.335938 23.980469 C 47.335938 23.753906 51.238281 24.246094 54.976562 25.730469 C 55.535156 25.953125 55.988281 26.441406 56.875 27.085938 C 55.574219 27.972656 54.648438 28.691406 53.644531 29.277344 C 49.992188 31.402344 47.207031 34.46875 44.742188 37.785156 C 40.488281 43.507812 40.527344 50.105469 44.953125 54.828125 C 48.207031 58.300781 52.316406 60.484375 57.152344 60.953125 C 60.3125 61.253906 63.292969 60.6875 66.066406 59 C 72.5 55.089844 78.675781 46.734375 76.339844 36.628906 C 75.964844 35 75.597656 33.375 75.234375 31.785156 C 89.9375 27.316406 119.8125 34.390625 126.6875 44.066406 C 125.339844 44.183594 124.1875 44.242188 123.054688 44.394531 C 120.679688 44.71875 118.246094 44.867188 115.949219 45.492188 C 112.496094 46.425781 109.738281 48.539062 108.128906 51.777344 C 107.472656 53.09375 107.199219 54.726562 107.222656 56.207031 C 107.246094 57.730469 107.894531 59.214844 109.4375 59.949219 C 113.925781 59.285156 114.027344 59.402344 116.460938 57.234375 C 118.273438 55.628906 120.277344 55.070312 122.582031 54.96875 C 126.894531 54.785156 131.1875 54.839844 135.449219 55.601562 C 136.804688 55.84375 138.167969 56.117188 139.535156 56.191406 C 143.652344 56.421875 146.441406 53.605469 146.15625 49.554688 C 146.082031 48.53125 145.851562 47.515625 145.691406 46.496094 Z M 67.574219 43.664062 C 66.679688 46.820312 65.03125 49.605469 61.9375 51.257812 C 58.550781 53.0625 52.96875 51.53125 51.140625 48.207031 C 50.3125 46.703125 50.59375 45.230469 51.46875 43.847656 C 53.605469 40.472656 56.335938 37.691406 59.878906 35.816406 C 61.515625 34.953125 63.285156 34.351562 65.335938 33.484375 C 67.949219 36.9375 68.542969 40.242188 67.574219 43.664062 Z M 67.574219 43.664062 "/></g></g></g></g></svg>